<svg id="Layer_1" data-name="Layer 1" xmlns="http://www.w3.org/2000/svg" viewBox="0 0 120 90"><defs><style>.cls-1{fill:#3f5caa;}.cls-2{fill:#4772b8;}.cls-3{fill:#4265b0;}.cls-4{fill:#4369b2;}.cls-5{fill:#fff;}.cls-6{fill:#4162ae;}.cls-7{fill:#446ab3;}</style></defs><title>CMC</title><g id="UogLVZ"><path class="cls-1" d="M88.89,85.74A32.45,32.45,0,0,1,84,86.5c-15.24.06-30.48.12-45.71,0C32,86.42,26.62,84,22.9,78.71a18.86,18.86,0,0,1-3.15-8.92,54.37,54.37,0,0,1-.17-5.71q0-21,0-41.92a16.69,16.69,0,0,1,.72-4.94c.83-1,.87-1,1.85-.17,2.87,2.49,5.69,5,8.53,7.55s5.35,4.86,8.11,7.19a.7.7,0,0,0,1,.1c.25-.17.55-.41.83,0a4.46,4.46,0,0,1-.76,1.87,23.83,23.83,0,0,0-2.69,10.82,23.43,23.43,0,0,0,2.65,11.31A23.67,23.67,0,0,0,54.16,68.15c8.33,2.56,16,1,22.77-4.45a3.64,3.64,0,0,1,1.36-.9c.59.49.1.85-.19,1.17a19.74,19.74,0,0,1-3.62,3.08c-.83.56-1.56,1.26-2.42,1.77-.4.23-.27.43,0,.67.83.86,1.82,1.54,2.69,2.37,2.59,2.47,5.35,4.76,8,7.23,1.92,1.81,4,3.47,6,5.19C89.22,84.73,89.43,85.16,88.89,85.74Z"/><path class="cls-2" d="M45.21,3.48l.87,0c12.23,0,24.46,0,36.68,0A20.81,20.81,0,0,1,94.15,6.35a17.45,17.45,0,0,1,8.14,12.49,41.19,41.19,0,0,1,.4,6.47q0,16.25,0,32.5c0,.39,0,.78,0,1.17-.54.36-.83-.1-1.15-.38-3-2.61-6-5.33-8.9-8-2-1.79-4.06-3.48-6-5.28,0,.07-.65,1-.69,1A2.52,2.52,0,0,1,85.72,45a23.56,23.56,0,0,0-5-15.06,23.87,23.87,0,0,0-15.5-9.28c-.34-.06-.73,0-1-.35a.73.73,0,0,0-.25-1c-2.05-1.64-4.08-3.3-6-5.11-2.17-2.07-4.42-4.07-6.66-6.06C50.05,7,48.82,5.8,47.46,4.76a3.93,3.93,0,0,0-1.31-.61C45.78,4,45.29,4,45.21,3.48Z"/><path class="cls-3" d="M86,46.36c.39-.49,0-1.14.32-1.68,2.83,2.87,6.06,5.24,8.93,8,2.15,2.06,4.4,4,6.6,6a1,1,0,0,0,.78.32c0,4.38.4,8.8-.55,13.13-1.56,7.06-5.9,11.58-12.83,13.63a1.61,1.61,0,0,1-.38,0c.47-1.22-.67-1.56-1.25-2-2.67-2.25-5.31-4.53-7.82-7-1.28-1.25-2.83-2.22-4.06-3.5s-2.76-2.38-4-3.69c-.45-.46-.35-.56.09-.88a39.24,39.24,0,0,0,6-4.77c.29-.31.62-.58.52-1.07-.1-.33.08-.63.12-.94A2,2,0,0,0,76,59.49a1.63,1.63,0,0,1-.65.12c-1-1.61-2.66-2.59-4.06-3.82s-2.88-2.77-4.43-4a1.44,1.44,0,0,1-.41-2c.73-1.62,1.6-3.16,2.46-4.72.28-.51.48-1,.76-1.56a2,2,0,0,1,.16-.24c.59-.38.72-1.09,1.12-1.6.46.26.38.71.39,1.11,0,1,.05,2.06,0,3.09a13.49,13.49,0,0,0,.46,3.9c-.22,1.83,1.27,4,3.34,4.93a7.15,7.15,0,0,0,7.33-1.27,1,1,0,0,0,.3-.58,1.76,1.76,0,0,1,.48-.71,8.38,8.38,0,0,0,2.31-4.57C85.63,47.15,85.62,46.67,86,46.36Z"/><path class="cls-4" d="M45.21,3.48c.75.64,1.85.46,2.58,1.23,1.34,1.41,2.91,2.59,4.35,3.91s3.2,2.7,4.68,4.18c2,2,4.24,3.61,6.27,5.51a16.18,16.18,0,0,0,1.37,1.07c.19.14.39.27.3.54s-.37.19-.57.25a.78.78,0,0,1-.75.12,13,13,0,0,0-3.41,0,25.58,25.58,0,0,0-9,2.32,25.3,25.3,0,0,0-9.58,8.29c-.24.35-.37.85-.93.88-1,.8-1.67.32-2.58-.43-1.87-1.53-3.54-3.27-5.42-4.79s-3.68-3.31-5.53-5a34.84,34.84,0,0,1-4-3.69c-.4-.49-1.13-.7-1.57-1.23-.22-.26-.4-.11-.52.13a.61.61,0,0,1-.6.39,16.39,16.39,0,0,1,4.77-8.53,18.22,18.22,0,0,1,11.31-5A78.15,78.15,0,0,1,45.21,3.48Z"/><path class="cls-5" d="M40.56,31.8A27.35,27.35,0,0,1,49,23.48a23.13,23.13,0,0,1,9-3.14c.66-.09,1.33-.15,2-.23a18.5,18.5,0,0,1,3.49,0l.73.05a29.74,29.74,0,0,1,6.15,1.59c8.86,3.82,14,10.48,15.48,20.06.22,1.51.11,3,.2,4.54a10.11,10.11,0,0,1-3.19,6.57,5.63,5.63,0,0,1-4.42,2A7,7,0,0,1,72,51.4a2.18,2.18,0,0,1-.44-1.35c-.92-2.63-.54-5.36-.61-8,0,0,0-.09,0-.09a.5.5,0,0,0-.13,0,4.28,4.28,0,0,1-1,1.53h0A90.29,90.29,0,0,1,64,53a5.17,5.17,0,0,1-1.41,1.31,3.36,3.36,0,0,1-5-1.25,6.32,6.32,0,0,1-.72-3c0-2.23,0-4.47,0-6.7a2.24,2.24,0,0,0-.06-.74c-2.19,3.36-4.21,6.71-6.3,10-1,1.62-2,3.24-3.07,4.84a1.13,1.13,0,0,0,.21,1.68,19.91,19.91,0,0,0,12.78,5.62,19.45,19.45,0,0,0,14.19-4.89c.22-.19.43-.41.76-.36a2.33,2.33,0,0,1,2.93.28c.75.78.81,1.74.17,3a25.31,25.31,0,0,1-12.08,6.28A24.73,24.73,0,0,1,40.16,32.57Z"/><path class="cls-6" d="M75.3,59.5A20,20,0,0,1,47.13,59,1,1,0,0,1,47,57.59c3.17-5,6.3-10,9.44-15,.13-.21.28-.42.43-.64.34.19.18.48.18.7,0,2.49,0,5,0,7.48a6.11,6.11,0,0,0,.59,2.62,3.11,3.11,0,0,0,4.77,1.34,8,8,0,0,0,2.3-2.59c1.53-2.44,3-4.88,4.56-7.32.17-.27.37-.52.56-.77a10.89,10.89,0,0,1-1.5,3.2c-.63,1.16-1.23,2.33-1.77,3.54a1,1,0,0,0,.32,1.32c2.33,1.84,4.27,4.14,6.72,5.87C74.27,57.81,75.24,58.4,75.3,59.5Z"/><path class="cls-6" d="M71.59,50.05a7.33,7.33,0,0,0,4.28,4.22,6.93,6.93,0,0,0,6.31-.93l.65-.41c.37.26.11.45-.07.61-2.57,2.18-6.11,2.69-8.81.77a6.9,6.9,0,0,1-2.41-3.08A1.12,1.12,0,0,1,71.59,50.05Z"/><path class="cls-6" d="M69.81,43.41a4,4,0,0,1,1-1.53C71,42.72,70.44,43.1,69.81,43.41Z"/><path class="cls-2" d="M63.46,20.12H60A7.23,7.23,0,0,1,63.46,20.12Z"/><path class="cls-7" d="M69.27,26.21A19.88,19.88,0,0,1,81.34,42.05a13.61,13.61,0,0,1,0,5A4.65,4.65,0,0,1,81,48.14a3.15,3.15,0,0,1-3.37,1.92,2.88,2.88,0,0,1-2.08-2.94c-.08-2,0-4-.06-6A8.38,8.38,0,0,0,75,38.25a3.41,3.41,0,0,0-5.53-1.73,10.27,10.27,0,0,0-2.58,3c-1.63,2.61-3.24,5.22-4.86,7.83l-.55.81c0-2.5,0-4.75,0-7a27.57,27.57,0,0,0-.12-4.26c-.39-2.26-1.29-3.08-3.53-3.16-1.85-1.56-3.66-3.16-5.41-4.82-.45-.43-.42-.82,0-1.23a8.13,8.13,0,0,1,2.24-1.31,18.52,18.52,0,0,1,14-.16A.86.86,0,0,0,69.27,26.21Z"/><path class="cls-6" d="M69.27,26.21a.65.65,0,0,1-.73.06,16.07,16.07,0,0,0-6.77-1.2,16.1,16.1,0,0,0-9,2.7c-.63.46-.57.64,0,1.11,1.67,1.43,3.29,2.93,4.91,4.41a1.35,1.35,0,0,1,.18.44,5.92,5.92,0,0,0-2.78,2.59q-5.38,8.63-10.79,17.24c-.14.22-.29.43-.5.74a17.8,17.8,0,0,1-2-5.6A20.26,20.26,0,0,1,56.2,25.32a18.86,18.86,0,0,1,3.61-.56A20.91,20.91,0,0,1,69.27,26.21Z"/></g></svg>