<svg id="Layer_1" data-name="Layer 1" xmlns="http://www.w3.org/2000/svg" viewBox="0 0 120 90"><defs><style>.cls-1{fill:#7bc143;}.cls-2{fill:#fbe978;}.cls-3{fill:#fffffe;}.cls-4{fill:#595a5c;}.cls-5{fill:#00984c;}.cls-6{fill:#fdfefb;}</style></defs><title>COINGECKO</title><g id="wnEobl"><path class="cls-1" d="M20.24,44.93c0-7.6-.11-15.21,0-22.81.11-6.27,2.43-11.57,7.71-15.3a18.84,18.84,0,0,1,9.13-3.19,49.64,49.64,0,0,1,5-.19c13.75,0,27.51,0,41.26,0,4.26,0,8.37.76,12,3.24a17.87,17.87,0,0,1,7.78,13.57c.17,1.71.18,3.41.18,5.13,0,14.14.1,28.28-.07,42.42-.08,7.42-3.24,13.27-10.08,16.73a21.09,21.09,0,0,1-9.69,2q-21.7.06-43.41,0c-4.46,0-8.74-.85-12.43-3.61a17.92,17.92,0,0,1-7.26-13.25c-.16-1.64-.18-3.29-.18-4.93V44.93Z"/><path class="cls-2" d="M62.18,26.76a22.4,22.4,0,0,1-3.26-.44c-6.54-.66-12.07,1.63-16.84,5.89-2.55,2.27-3.57,5.41-4,8.72-.55,4.35-.66,8.75-1.37,13.09A41.27,41.27,0,0,1,33.9,64c0,.09-.09.16-.19.33a30.12,30.12,0,0,1-4.35-8.85c-3.95-13.87-.79-25.89,9.74-35.77a31.61,31.61,0,0,1,19.25-8.47A33.23,33.23,0,0,1,86.73,22a32.4,32.4,0,0,1,8.65,18.18,33.19,33.19,0,0,1-7.21,26.22,33.6,33.6,0,0,1-19.53,12c-.92.2-1-.35-1-.95a18.48,18.48,0,0,1,.89-6.68A36.36,36.36,0,0,1,75.23,59c3-3.81,6.69-7,10.08-10.49A14.64,14.64,0,0,0,88.45,44a6.32,6.32,0,0,0-2-7.73,19.47,19.47,0,0,0-7-3.31A80.75,80.75,0,0,1,71.32,30a6.93,6.93,0,0,1-.72-.9A5.34,5.34,0,0,0,66,26.62C64.71,26.54,63.45,26.78,62.18,26.76Z"/><path class="cls-3" d="M56.87,30.05a6.58,6.58,0,1,1-6.54,6.55A6.62,6.62,0,0,1,56.87,30.05Z"/><path class="cls-4" d="M85.54,47.38a22.88,22.88,0,0,1-5.41,3.09c-3.85,1.6-7.78,2.8-12,2.5a9.13,9.13,0,0,1-5.85-2.64,13.33,13.33,0,0,0,4.48,1.48,28.35,28.35,0,0,0,13-1.82A37.48,37.48,0,0,0,85.54,47.38Z"/><path class="cls-5" d="M62.18,26.76a9.28,9.28,0,0,1,5.87,0A4.89,4.89,0,0,1,71.32,30,42.25,42.25,0,0,0,62.6,27,3.17,3.17,0,0,1,62.18,26.76Z"/><path class="cls-6" d="M81.88,43.24a1.43,1.43,0,0,1-1.46,1.36,1.41,1.41,0,0,1-1.36-1.45,1.43,1.43,0,0,1,1.44-1.38A1.47,1.47,0,0,1,81.88,43.24Z"/><path class="cls-3" d="M62.44,13.18a19.27,19.27,0,0,1,6.9.07,19.8,19.8,0,0,1,9.34,4.45,88.56,88.56,0,0,1,7.46,6.5,27.29,27.29,0,0,1,7.72,16.73,29.82,29.82,0,0,1,0,5.51,1.37,1.37,0,0,1-.33.85c-.29-1.42-.54-2.74-.83-4.06a50.44,50.44,0,0,0-8.72-19.7A20.3,20.3,0,0,0,74.62,17a60.48,60.48,0,0,0-11.77-3.48A.42.42,0,0,1,62.44,13.18Z"/><path class="cls-4" d="M56.89,41.29a4.62,4.62,0,1,1,4.63-4.62A4.63,4.63,0,0,1,56.89,41.29Z"/></g></svg>