<svg id="Layer_1" data-name="Layer 1" xmlns="http://www.w3.org/2000/svg" viewBox="0 0 120 90"><defs><style>.cls-1{fill:#00b5d6;}.cls-2{fill:#00b3d2;}.cls-3{fill:#00b6d8;}.cls-4{fill:#00b0cf;}.cls-5{fill:#00b1d1;}.cls-6{fill:#00b2d2;}.cls-7{fill:#00b7d9;}.cls-8{fill:#00abc8;}</style></defs><title>DEXTOOLS</title><g id="O8KaLJ"><path class="cls-1" d="M26.79,68.84c-.57-.11-.62-.54-.62-1,0-3.39,0-6.78,0-10.18A1.13,1.13,0,0,1,27,56.5Q41.7,49.27,56.42,42l19.43-9.58,9.22-4.53c.35-.18.94-.23,1-.65s-.62-.54-1-.72C81.93,25,78.81,23.48,75.71,22c-.31-.15-.84-.19-.82-.61s.54-.44.85-.6c3.27-1.61,6.56-3.19,9.81-4.83a1.94,1.94,0,0,1,1.88,0c3.39,1.7,6.78,3.4,10.19,5.07a1.13,1.13,0,0,1,.72,1.2c0,3.39,0,6.78,0,10.18a1.11,1.11,0,0,1-.76,1.16Q82.9,40.69,68.22,47.92L42,60.8c-.92.45-1.85.9-2.77,1.37-.31.15-.85.1-.83.57s.55.43.86.59c2.92,1.49,5.85,3,8.77,4.44.38,1.21.09,1.6-1.19,1.59a2.18,2.18,0,0,0-1.19.15c-1.3.78-2.73.56-4.1.49a40.8,40.8,0,0,0-5.85,0c-2.83.24-5.66.28-8.31-1A1.4,1.4,0,0,0,26.79,68.84Z"/><path class="cls-2" d="M83.25,61.35c.74.34,1.5.63,2.2,1s1,.2,1-.59c0-3.58,0-7.15,0-10.73,0-.52,0-1,0-1.55,0-2.53,0-2.53,2.28-3.66,2.87-1.41,5.76-2.8,8.63-4.24.74-.37,1-.34,1,.58q0,12.68.06,25.34a1.49,1.49,0,0,1-.95,1.61c-3.4,1.61-6.77,3.27-10.13,5a1.81,1.81,0,0,1-1.84,0c-3.52-1.78-7-3.57-10.6-5.26q-6.15-2.91-12.19-6.07c.13-.79.68-.47,1.09-.36a4.67,4.67,0,0,1,1.15.65,1.55,1.55,0,0,0,1.26.3,5.61,5.61,0,0,1,3.46.26,3.3,3.3,0,0,0,1,.1H84.83a1.1,1.1,0,0,0,.82-.19,3.43,3.43,0,0,0-1.42-.92,2.37,2.37,0,0,1-1.14-.83C83,61.6,82.83,61.34,83.25,61.35Z"/><path class="cls-3" d="M26.49,21.26c3.62-1.81,7.25-3.62,10.86-5.45a1.54,1.54,0,0,1,1.54,0Q46.42,19.57,54,23.26l10.81,5.3c.37.18.72.38,1.08.57-.07.47-.5.43-.75.56-3.29,1.66-6.6,3.29-9.89,5a1.83,1.83,0,0,1-1.84,0c-5-2.5-10.06-4.94-15.09-7.4A11.29,11.29,0,0,1,34.91,26c-2.53-1.16-5-2.45-7.48-3.72C27,22,26.56,21.82,26.49,21.26Z"/><path class="cls-4" d="M26.49,21.26a26.27,26.27,0,0,0,4.27,2.4c1.93,1.1,4,1.88,6,2.91.5.25,1.24-.06,1.5.67-.3.35-.17.77-.18,1.16,0,4.53,0,9.06,0,13.59a1.34,1.34,0,0,1-.88,1.44c-3.42,1.63-6.81,3.3-10.2,5-.67.33-.87.25-.86-.54,0-8.54,0-17.09,0-25.63C26.19,21.9,26.07,21.49,26.49,21.26Z"/><path class="cls-5" d="M46.48,11.44c1.18-.61,2.27-1.2,3.37-1.74C53.62,7.84,57.4,6,61.15,4.14a2.14,2.14,0,0,1,2.15,0c4.41,2.2,8.87,4.32,13.3,6.48a2.81,2.81,0,0,1,1.36.93c-2.52,1.25-5,2.49-7.51,3.71-1.16.57-2.33,1.1-3.48,1.7a1.27,1.27,0,0,1-1.33,0,17.37,17.37,0,0,1-1.79-.86,2.61,2.61,0,0,0-3.41.12c-1.48,1.11-2.83.92-4.42.05-3-1.63-6.05-3-9.09-4.5C46.8,11.69,46.7,11.59,46.48,11.44Z"/><path class="cls-6" d="M78.09,78.53c-2.43,1.21-4.66,2.33-6.89,3.43-2.71,1.33-5.43,2.63-8.13,4a1.5,1.5,0,0,1-1.53,0c-4.79-2.36-9.59-4.68-14.39-7a7.88,7.88,0,0,1-.68-.44c1-.5,1.86-1,2.76-1.41,2.73-1.35,5.48-2.68,8.21-4A1.31,1.31,0,0,1,59,73a4.82,4.82,0,0,0,6.4.07,1.53,1.53,0,0,1,1.74,0c3.12,1.58,6.27,3.1,9.41,4.64C77,78,77.42,78.19,78.09,78.53Z"/><path class="cls-7" d="M83.25,61.35c0,.69.6.72,1,.88a12.35,12.35,0,0,1,1.91,1.08c.16.1.32.26.25.45s-.26.25-.46.26h-.88c-4.72,0-9.44,0-14.16,0a6.92,6.92,0,0,1-2.15-.32,2.73,2.73,0,0,0-2.31,0c-.72.37-1.59-.2-2.29-.71-.45-.32-.92-.83-1.53-.23l-4.17-2c1.36-.69,2.48-1.27,3.61-1.82,2.44-1.2,4.91-2.38,7.34-3.6a1.74,1.74,0,0,1,1.75,0c3.58,1.82,7.18,3.59,10.77,5.39C82.36,60.91,82.89,61,83.25,61.35Z"/><path class="cls-8" d="M26.79,68.84a3.83,3.83,0,0,1,2.09.27,10.54,10.54,0,0,0,3.31.68c2.84,0,5.67-.56,8.47-.18,1.21.17,2.4-.18,3.58.13a1.14,1.14,0,0,0,.81-.27,2.23,2.23,0,0,1,2-.39c1.22.35.88-.73,1.06-1.31.5.28,1.37.4,1.39.88s-.85.63-1.33.88c-2.75,1.42-5.57,2.69-8.28,4.17a3.2,3.2,0,0,1-3.36,0c-3.09-1.58-6.23-3.08-9.34-4.61A3.07,3.07,0,0,1,26.79,68.84Z"/></g></svg>