<svg id="Layer_1" data-name="Layer 1" xmlns="http://www.w3.org/2000/svg" viewBox="0 0 120 90"><defs><style>.cls-1{fill:#1d335e;}.cls-2{fill:#979694;}</style></defs><title>ETHERSCAN</title><path class="cls-1" d="M52,4.65a1.29,1.29,0,0,0,1-.21c.68-.49,1.52-.35,2.27-.58s1.39-.08,2.08-.24c1-.08,2.09,0,3.13,0s2.1,0,3.15,0a57.44,57.44,0,0,1,6,1,1.25,1.25,0,0,1,.6.34l2.35.66a9.3,9.3,0,0,1,4.3,1.62c2,.93,3.88,2,5.78,3.12a2.07,2.07,0,0,1,1.24.84l2.17,1.62a2.83,2.83,0,0,1,1.67,1.4l.41.4c.71.79,1.71,1.23,2.4,2.05a2.9,2.9,0,0,1,.59,1l1,1.22a2.54,2.54,0,0,1,1.41,1.83l1.92,2.87c.27,0,.16.28.27.4l1.62,3a16.48,16.48,0,0,1,2.41,6.35,2.9,2.9,0,0,1-.47,1.74c-.55,1.51-1.73,2.59-2.65,3.86-.49.39-.51,1.22-1.26,1.36a.62.62,0,0,0-.39.41c-1,1-1.72,2.32-3,3L89.47,46c-.14.52-.7.52-1,.84l-3.87,3c-.32.2-.57.49-.73-.21a7.49,7.49,0,0,1-.12-2.9,13,13,0,0,0,0-4.09,7.56,7.56,0,0,1,.1-2.8,8.78,8.78,0,0,0,0-3.11,11,11,0,0,1,0-3.29,9.71,9.71,0,0,0,0-3.4,6.64,6.64,0,0,1,0-2.7A7.29,7.29,0,0,0,84,24.68a3.18,3.18,0,0,0-2.59-2.63,4.07,4.07,0,0,0-1.87,0,6.82,6.82,0,0,1-2.7,0A7.46,7.46,0,0,0,74.27,22a1.25,1.25,0,0,0-1,.36A6.39,6.39,0,0,1,72,23.59a3.73,3.73,0,0,0-.58,2.58q-.1,14.31-.2,28.63a3.47,3.47,0,0,1-1.49,3.11c-.42.71-1.2.63-1.85.83a1.84,1.84,0,0,0-1,.39c-.24.2-.38.15-.39-.18l0-3.43a3.42,3.42,0,0,1,0-3l0-3.23a3.86,3.86,0,0,1,0-3.24l0-3.23a3.86,3.86,0,0,1,0-3.24l0-3.23c-.56-1-.12-2-.31-3A2.91,2.91,0,0,0,64.32,31a67.3,67.3,0,0,0-7.24-.09,2.82,2.82,0,0,0-2.61,2.18,2.11,2.11,0,0,1-.09.36,12,12,0,0,0-.1,2.81c0,2-.12,4-.25,6,0,.61.22,1.17.2,1.79,0,1.44-.33,2.86-.26,4.3a16.43,16.43,0,0,1,.22,2.8A3.43,3.43,0,0,1,54,52.37a24.34,24.34,0,0,0,.12,3.91c.23,1.53-.28,3-.28,4.59l-.05.79c-.19.31.07.84-.46,1a4.29,4.29,0,0,1-2.79,1.47c-1.21.67-1.7.37-1.73-1,0-.58.27-1.1.25-1.68a20.34,20.34,0,0,0-.16-3.31c-.25-1.17.25-2.33.19-3.49-.17-3.62-.11-7.24-.13-10.86a4.77,4.77,0,0,0-.09-2,3,3,0,0,0-3.28-2.29c-1.78,0-3.56,0-5.35,0a3,3,0,0,0-3.35,3.31c0,1.37-.18,2.74-.25,4.11a13,13,0,0,0,.12,2.71,6.36,6.36,0,0,1-.1,2.6,6.41,6.41,0,0,0-.07,2.31,19,19,0,0,1-.05,5c-.21,1.4.23,2.8.17,4.21a2.38,2.38,0,0,1-.56,1.68A3.53,3.53,0,0,1,33.21,67a47.76,47.76,0,0,1-4.93.28,3.93,3.93,0,0,1-3.62-2.67h0A5.92,5.92,0,0,1,23,61.49a32.46,32.46,0,0,1-2.17-6.14A6.93,6.93,0,0,1,20,51.84a2.3,2.3,0,0,0-.1-1.16l-.19-1.61a7,7,0,0,1-.32-3.65,11.58,11.58,0,0,0,0-3.22,4.68,4.68,0,0,1,.41-2.84l.42-2.65a13.88,13.88,0,0,1,.37-2.55,5.87,5.87,0,0,1,.67-1.46l2.3-5.8A22.94,22.94,0,0,1,26.79,21c.33-.5.74-1,1.08-1.45a38.57,38.57,0,0,1,3.53-4,25.41,25.41,0,0,0,2.21-2.07c.34-.32.75-.54,1.08-.88a41.42,41.42,0,0,1,9-5.47.81.81,0,0,1,.59-.07,29.5,29.5,0,0,0,3.23-1.25,7.81,7.81,0,0,1,3.4-1C51.31,4.73,51.69,4.85,52,4.65Z"/><path class="cls-2" d="M37.6,78.51a1,1,0,0,0-.62-.4c-.47-.67.09-.71.5-.75s.78.12,1.17,0a83.72,83.72,0,0,0,8.46-1.66C48,75,49,75.14,50,74.89a.16.16,0,0,0,.15,0,12.22,12.22,0,0,1,4.27-1.2,12,12,0,0,0,2.6-.84,1.68,1.68,0,0,1,.85-.5,38.9,38.9,0,0,0,4.67-1.7,4.63,4.63,0,0,1,1.16-.2l1.83-.8a.38.38,0,0,1,.4-.2l.6-.24a6.31,6.31,0,0,1,2-.8l1.24-.6A10.06,10.06,0,0,1,73.4,66l.79-.43a4.64,4.64,0,0,1,2.45-1.38,11.88,11.88,0,0,0,2.62-1.64,2.82,2.82,0,0,1,1-.59A66.33,66.33,0,0,0,88,56.31,72.06,72.06,0,0,0,98.47,45.62c.81-1,1.57-2.1,2.34-3.15.12-.16.2-.35.45-.35a6.19,6.19,0,0,1,.19,3.78c-.1.43.07.87-.16,1.27a.25.25,0,0,0,0,.17c-.3,1.22.19,2.46-.1,3.69a2.68,2.68,0,0,1-.51,1.39,5,5,0,0,0-.41,2v0a.69.69,0,0,0-.2.61,8,8,0,0,1-1.21,3.86c-.54,1.22-1.07,2.43-1.6,3.65-.06.47-.11,1-.62,1.19A2.84,2.84,0,0,0,96,64.92a2.9,2.9,0,0,1-.77,1.25l-1,1.6a5.32,5.32,0,0,1-2,2.65l-.62.76A5.76,5.76,0,0,1,88.91,74l-.59.58a6.72,6.72,0,0,1-2.65,2.25c-.52.09-.75.59-1.15.85a3.22,3.22,0,0,1-2,1.4,2.57,2.57,0,0,0-1,.62,1.42,1.42,0,0,1-1.06.6l-2.26,1.2a.36.36,0,0,1-.37.17,51.1,51.1,0,0,1-7.07,2.48c-.36.34-.83.26-1.26.37a1.42,1.42,0,0,0-1,.21h0a4.43,4.43,0,0,0-1.61.23,3.28,3.28,0,0,1-1.62.5,47.42,47.42,0,0,1-5.06.08h0A5,5,0,0,1,57,85.39l-.59-.06a1.58,1.58,0,0,1-1.58-.17c-.32-.25-.7-.16-1.06-.19a2.68,2.68,0,0,1-2.13-.22c-1.08-.37-2.21-.47-3.28-.84a2.4,2.4,0,0,1-1.06-.55l-.6-.21h0l-2-.8a10.22,10.22,0,0,1-3.06-1.2,3,3,0,0,1-.5-.27c-.82-.45-1.62-.94-2.44-1.38A2.33,2.33,0,0,1,37.6,78.51Z"/></svg>