<svg id="Layer_1" data-name="Layer 1" xmlns="http://www.w3.org/2000/svg" viewBox="0 0 120 90"><defs><style>.cls-1{fill:#ed077e;}.cls-2{fill:#fad6e6;}.cls-3{fill:#fffefe;}.cls-4{fill:#fffffe;}.cls-5{fill:#fff;}.cls-6{fill:#fefdfe;}.cls-7{fill:#fefcfd;}.cls-8{fill:#fcf0f6;}.cls-9{fill:#fdf4f8;}.cls-10{fill:#fdf6f8;}.cls-11{fill:#fcebf3;}.cls-12{fill:#f9cde0;}.cls-13{fill:#f49ec4;}.cls-14{fill:#f393be;}.cls-15{fill:#f2a7ca;}.cls-16{fill:#ed2881;}.cls-17{fill:#ee2b7f;}</style></defs><title>UNISWAP</title><g id="sVNlAX"><path class="cls-1" d="M35.61,11.43a47.87,47.87,0,0,1,7.84-4.7A41.19,41.19,0,0,1,65.27,3.15,40.6,40.6,0,0,1,87,12.23a41.5,41.5,0,0,1,14.83,37.85A41.5,41.5,0,0,1,72.2,84.18,41.67,41.67,0,0,1,32,74,40.15,40.15,0,0,1,21,55.67a41,41,0,0,1,1.6-27.19,46,46,0,0,1,6.82-11.21A38.85,38.85,0,0,1,34,12.68a.82.82,0,0,1,1.32.08c.93.93,1.68,2,2.56,3L38,16a5.74,5.74,0,0,0,.9,1.07,2,2,0,0,1,.17.23,13.53,13.53,0,0,0,1.66,2c3.18,3.87,6.39,7.71,9.49,11.66a13,13,0,0,1,1.22,1.53,1.56,1.56,0,0,1-.57,2.3c-1.8,1.13-3.5.63-4.86-1.44a2.79,2.79,0,0,0-.9-1.24,11.77,11.77,0,0,1-1.69-2.55c-.92-1.88-2.28-3.51-3-4.93,1,1.5,2,3.52,3.17,5.5.71,1.19,1.34,2.41,2,3.62A1.83,1.83,0,0,1,45.51,36c-1.27,1.28-1.49,2.94-1.71,4.56a14.14,14.14,0,0,1-2.73,6.5,25.86,25.86,0,0,1-2.22,2.85c-2.45,2.57-2.11,7-.59,9.58a33.32,33.32,0,0,1,1.89,3.21.79.79,0,0,0,1,.48,15.09,15.09,0,0,0,6.17-2.78,3.47,3.47,0,0,0-.21-5.79,30,30,0,0,1-2.35-1.86c-1.66-1.49-1.6-3.32-1.11-5.23a8.39,8.39,0,0,1,.84-1.89,13.43,13.43,0,0,0,1.41-5.45c.11-2,.94-2.84,2.87-3.19a6.94,6.94,0,0,0,3.35-1.26,2.8,2.8,0,0,0,.36-4.13c-3.05-3.32-6.09-6.66-9.07-10a7,7,0,0,0-1.77-1.86,24.06,24.06,0,0,1-2.52-2.81c-.87-1.3-2.13-2.28-3.09-3.51-.18-.24-.43-.44-.62-.68C35,12.2,35,11.76,35.61,11.43Z"/><path class="cls-2" d="M37.86,16a16.32,16.32,0,0,1-2-2.31c-1.22-1.46-1.21-1.49-2.62-.15S30.69,16,29.42,17.27c0-.14,0-.32.07-.4a34.59,34.59,0,0,1,5.92-5.42c.05,0,.13,0,.2,0-.4.43-.32.79.09,1.21,1,1.06,2,2.16,3,3.26.24.27.62.46.61.9C38.6,17,38.48,16,37.86,16Z"/><path class="cls-3" d="M37.86,16c0-.22.1-.41.36-.18l1.1,1,2.48,2.71c.5.67,1.17,1.18,1.69,1.83,3,3.13,5.89,6.37,8.74,9.63.55.62,1.34,1,1.42,2.06.15,1.8-1.51,3.34-2.86,3.74-.82.25-1.67.38-2.51.56a2.17,2.17,0,0,0-2,2.07,21.21,21.21,0,0,1-2.18,7.77c-1.22,2.64-.56,4.54,1.82,6.26.59.43,1.19.83,1.74,1.29A3.53,3.53,0,0,1,48,60.07c-1.67,1.77-3.88,2.53-6.14,3.18a4,4,0,0,0-.5.11c-.86.44-1.24.07-1.61-.73-.48-1.05-1.21-2-1.74-3-1.75-3.38-2-6.67.58-9.82a50,50,0,0,0,3.22-4.29c1.3-2,1.56-4.38,2-6.67a3.94,3.94,0,0,1,.93-2.25c1.44-1.29.94-2.48.1-3.8-.54-.85-1-1.8-1.42-2.7-.1-.28-.25-.58.24-.65l1.63,2.5a14.93,14.93,0,0,0,.88,1.21c.78,1,1.47,2.09,3,1.9a4.4,4.4,0,0,0,1.73-.6c.75-.43.86-1.16.26-1.93-1.61-2.05-3.25-4.07-4.89-6.09l-5.76-7.12a18.31,18.31,0,0,0-1.68-2.05h0c-.23-.51-.73-.8-1-1.26Z"/><path class="cls-4" d="M85.53,53c-.37-3.33-2.75-4.75-5.31-6-2.92-1.42-6.07-2.38-8.91-4a8.75,8.75,0,0,1-4.51-4.93,13.1,13.1,0,0,1-.23-3c3,2.29,6.41,2.23,9.68,2.84,3,.57,5.81,1.39,8,3.64a10,10,0,0,1,1.63,11.2C85.86,52.83,85.74,52.86,85.53,53Z"/><path class="cls-5" d="M79.46,66a7.83,7.83,0,0,0-.93-7.16c-1.21-2-2.52-3.84-3.76-5.78A9.23,9.23,0,0,1,73.24,47c.12-1.08.32-1.2,1.25-.62,2,1.24,4.06,2.26,6,3.52C87,54,85.6,63.06,80.26,66.42c-.26.14-.53.36-.82.16S79.35,66.21,79.46,66Z"/><path class="cls-6" d="M60.85,63.34A2.78,2.78,0,0,1,62,66.55a3.31,3.31,0,0,1-3.11,2A4.85,4.85,0,0,1,55.75,67c-1.27-1.2-2.36-2.66-4.07-3.27-1.15-.4-2.36-.64-3.69-1a16.32,16.32,0,0,1,4.42-3.08,13.43,13.43,0,0,1,8-1.53c3.39.5,5.85,2.49,6.49,5.84.25,1.28.48,2.57.71,3.85a3.76,3.76,0,0,0,4.53,3.3c.5-.06,1-.18,1.52-.28-2,1.94-5.23,1.42-7-1.07a37.77,37.77,0,0,1-2.22-4.4c-1-1.79-2.26-3.18-4.46-3.4s-3.74,1.17-3.42,3.24a3,3,0,0,0,2.38,2.13,2,2,0,0,0,2.3-1.15,1.8,1.8,0,0,0-.56-2.45c-.11-.15-.49-.07-.39-.35S60.63,63.24,60.85,63.34Z"/><path class="cls-3" d="M74,35.24a12.45,12.45,0,0,1-10.67-5.41q-1.44-1.95-3-3.82a13.92,13.92,0,0,0-6.1-4.69c-.1-.48,0-.54.57-.37h0a10.2,10.2,0,0,1,2.28.83,15.92,15.92,0,0,1,4.42,3.66,1.85,1.85,0,0,0,1.87.72,19.09,19.09,0,0,1,8,.38,7.12,7.12,0,0,1,2.11.77c.55.43,1.22.62,1.79,1A3.52,3.52,0,0,1,76.47,33a3.34,3.34,0,0,0-.42.82C75.7,35.44,75.69,35.44,74,35.24Z"/><path class="cls-7" d="M51.16,23.67c0-.31,0-.62,0-.93,0-.47.26-.57.69-.46a5,5,0,0,1,4,3.73c.54,2.16.81,4.4,2.23,6.24.15.18.27.43,0,.65a.87.87,0,0,1-.88.1,7.16,7.16,0,0,1-3.66-2.56A11.66,11.66,0,0,1,51.16,23.67Z"/><path class="cls-8" d="M57.07,55.77a12.18,12.18,0,0,1,4.1-1.57A49.91,49.91,0,0,0,66.7,53a5.86,5.86,0,0,0,4.1-7.19c0-.19-.13-.39,0-.57,1.55,1.62,1.53,4.71,0,6.73-1.64,2.19-4,2.79-6.52,3a38.18,38.18,0,0,0-6.82.84C57.44,55.88,57.34,55.82,57.07,55.77Z"/><path class="cls-9" d="M74,35.24a4.33,4.33,0,0,1,.72,0c.72.08,1.13-.13,1-.94a1.42,1.42,0,0,1,.35-1.15c1.34-1.64.61-3.45-1.06-4.74-.5-.39-1.26-.4-1.56-1.08a8.74,8.74,0,0,1,2.91,1.49.94.94,0,0,1,.42.67,6.54,6.54,0,0,1-.29,4.14,1.14,1.14,0,0,0,.41,1.63c.62.39,1-.07,1.42-.46a5.07,5.07,0,0,0,1.12-2.51c.11-.51.28-.62.62-.22a14,14,0,0,1,3.09,6c-.5.12-.61-.26-.78-.45a6.16,6.16,0,0,0-4.3-1.93A24.32,24.32,0,0,1,74,35.24Z"/><path class="cls-10" d="M58.12,39c.78,1.86.1,2.66-2.45,3.2C54,42.56,53.05,42,53,40.83a2.69,2.69,0,0,1,2.67-3.08h.92A2.47,2.47,0,0,1,58.12,39Z"/><path class="cls-11" d="M74.07,25.5a6.4,6.4,0,0,1,2.31.65c.65.22,1,.06,1-.66a14.45,14.45,0,0,1,.35-2.29c-.11,2.67,1.23,4.62,3.32,6.34-.72.07-.85-.36-1.16-.46s-.55-.6-1-.31-.25.62-.26.94a4.62,4.62,0,0,1-.64,3c0-.93,0-1.79,0-2.64a3.69,3.69,0,0,0-2-3.55C75.41,26.23,74.81,25.91,74.07,25.5Z"/><path class="cls-12" d="M43.68,29.42c-.27.15-.17.43-.24.65-1.16-1.65-2-3.51-3-5.22a4.52,4.52,0,0,1-.54-1.3A44.61,44.61,0,0,1,43.68,29.42Z"/><path class="cls-13" d="M60.85,63.34l-.44.11.23.31a2.69,2.69,0,0,0-2.51.26A1.69,1.69,0,0,1,60.85,63.34Z"/><path class="cls-14" d="M54.83,21c-.22.08-.59-.09-.57.37l-2-.49A2.63,2.63,0,0,1,54.83,21Z"/><path class="cls-2" d="M38.88,17.24a4.08,4.08,0,0,1,1.68,2.05A7.37,7.37,0,0,1,38.88,17.24Z"/><path class="cls-2" d="M43.49,21.34a4.27,4.27,0,0,1-1.69-1.83A5.38,5.38,0,0,1,43.49,21.34Z"/><path class="cls-14" d="M57.11,21.78A8.11,8.11,0,0,1,54.83,21,3.23,3.23,0,0,1,57.11,21.78Z"/><path class="cls-15" d="M79.46,66c-.06.8.5.32.8.39a1.37,1.37,0,0,1-.28.26c-.27.15-.58.55-.86.2S79.23,66.28,79.46,66Z"/><path class="cls-16" d="M58.12,39c-.52-.41-1-.82-1.55-1.24C57.33,37.86,58,38.1,58.12,39Z"/><path class="cls-2" d="M37.86,16c.48.31,1,.61,1,1.26A2.56,2.56,0,0,1,37.86,16Z"/><path class="cls-12" d="M46.19,33.13a1.49,1.49,0,0,1-.88-1.21A1.82,1.82,0,0,1,46.19,33.13Z"/><path class="cls-17" d="M39.28,55.46c.77-.37-1.16-1.66.56-1.79a1.46,1.46,0,0,1,1.35,1.44,1.28,1.28,0,0,1-1.31,1.28C39.28,56.36,39.25,56,39.28,55.46Z"/><path class="cls-16" d="M55.74,40.16c-.64-.15-1.3-.33-1.35-1s.63-1.06,1.33-1,1.38.11,1.39,1S56.29,39.9,55.74,40.16Z"/></g></svg>